<?xml version="1.0" encoding="utf-8"?>
<!-- Generator: Adobe Illustrator 15.0.2, SVG Export Plug-In  -->
<!DOCTYPE svg PUBLIC "-//W3C//DTD SVG 1.1//EN" "http://www.w3.org/Graphics/SVG/1.1/DTD/svg11.dtd" [
	<!ENTITY ns_flows "http://ns.adobe.com/Flows/1.0/">
]>
<svg version="1.1"
	 xmlns="http://www.w3.org/2000/svg" xmlns:xlink="http://www.w3.org/1999/xlink" xmlns:a="http://ns.adobe.com/AdobeSVGViewerExtensions/3.0/"
	 x="0px" y="0px" width="163px" height="25px" viewBox="40 55 163 25" enable-background="new 40 55 163 25" xml:space="preserve">
<defs>
</defs>
<path fill="#DBDCDC" d="M245,0v155L0,124.902V0H245z"/>
<path fill="#A65B5B" d="M0,0v155l245-30.098V0H0z"/>
<defs>
	<filter id="Adobe_OpacityMaskFilter" filterUnits="userSpaceOnUse" x="42" y="55.529" width="15.286" height="17.416">
		<feColorMatrix  type="matrix" values="1 0 0 0 0  0 1 0 0 0  0 0 1 0 0  0 0 0 1 0"/>
	</filter>
</defs>
<mask maskUnits="userSpaceOnUse" x="42" y="55.529" width="15.286" height="17.416" id="b_1_">
	<g filter="url(#Adobe_OpacityMaskFilter)">
		<path id="a_1_" fill="#FFFFFF" d="M42,72.945V55.529h15.285v17.416H42z"/>
	</g>
</mask>
<path mask="url(#b_1_)" fill="#FEFEFE" d="M43.308,72.945c-0.14,0-0.26-0.026-0.355-0.057C42.597,72.772,42,72.382,42,71.065V56.257
	c0-0.402,0.322-0.728,0.717-0.728c0.397,0,0.717,0.326,0.717,0.728v14.808c0,0.107,0.006,0.196,0.015,0.268
	c0.056-0.058,0.12-0.138,0.193-0.239l4.45-6.249c0.5-0.711,1.218-1.101,1.978-1.103c0.754,0.013,1.463,0.44,1.942,1.17l3.84,6.012
	V56.257c0-0.402,0.32-0.728,0.717-0.728c0.395,0,0.717,0.326,0.717,0.728v14.808c0,0.386,0,1.559-0.854,1.82
	c-0.847,0.262-1.473-0.694-1.68-1.01l-3.937-6.161c-0.214-0.324-0.488-0.511-0.77-0.516c-0.271-0.001-0.56,0.173-0.79,0.497
	l-4.45,6.25C44.239,72.751,43.699,72.945,43.308,72.945"/>
<defs>
	<filter id="Adobe_OpacityMaskFilter_1_" filterUnits="userSpaceOnUse" x="66.36" y="55.529" width="1.433" height="17.478">
		<feColorMatrix  type="matrix" values="1 0 0 0 0  0 1 0 0 0  0 0 1 0 0  0 0 0 1 0"/>
	</filter>
</defs>
<mask maskUnits="userSpaceOnUse" x="66.36" y="55.529" width="1.433" height="17.478" id="d_1_">
	<g filter="url(#Adobe_OpacityMaskFilter_1_)">
		<path id="c_1_" fill="#FFFFFF" d="M66.36,55.529h1.505v17.478H66.36V55.529z"/>
	</g>
</mask>
<path mask="url(#d_1_)" fill="#FEFEFE" d="M67.076,73.007c-0.399-0.003-0.719-0.329-0.716-0.728v0V56.257
	c0-0.401,0.32-0.728,0.716-0.728s0.717,0.327,0.717,0.728v16.022C67.793,72.681,67.473,73.007,67.076,73.007"/>
<path fill="#FEFEFE" d="M75.196,73.007c-0.399-0.002-0.721-0.329-0.718-0.728v0v-8.982c0-0.804-0.64-1.456-1.432-1.456h-3.82v-1.456
	h3.82c1.583,0,2.866,1.303,2.866,2.912v8.982C75.912,72.681,75.592,73.007,75.196,73.007 M85.704,73.007
	c-0.399-0.003-0.719-0.329-0.716-0.728c0,0,0,0,0,0V60.627c0-0.401,0.32-0.728,0.716-0.728s0.716,0.327,0.716,0.728v11.652
	C86.42,72.681,86.1,73.007,85.704,73.007 M103.615,61.112c0.003-0.398-0.317-0.725-0.716-0.728l0,0h-3.763
	c-0.166-0.001-0.298-0.136-0.297-0.301c0,0,0,0,0-0.001v-3.824c0.003-0.398-0.317-0.724-0.716-0.728
	c-0.398,0.002-0.719,0.328-0.716,0.726c0,0.001,0,0.001,0,0.002v3.824c0.001,0.166-0.132,0.301-0.298,0.302l0,0h-2.33
	c-0.399,0.003-0.72,0.329-0.717,0.728c0,0.403,0.322,0.728,0.716,0.728h2.33c0.165,0,0.299,0.136,0.299,0.303v7.465
	c0,1.87,1.505,3.399,3.343,3.399h2.149c0.399-0.003,0.719-0.329,0.716-0.728c0,0,0,0,0,0c0.003-0.398-0.317-0.725-0.716-0.728l0,0
	h-2.149c-1.052,0-1.91-0.875-1.91-1.943v-7.465c-0.001-0.166,0.131-0.301,0.296-0.303h3.763
	C103.298,61.837,103.618,61.511,103.615,61.112L103.615,61.112 M119.139,73.007h-6.45c-1.838,0-3.341-1.53-3.341-3.398v-6.312
	c0-1.823,1.699-2.912,3.342-2.912h4.192c1.577,0,2.985,1.149,3.185,2.74c0.244,1.923-1.232,3.572-3.078,3.572h-4.06
	c-0.399-0.004-0.72-0.331-0.716-0.73c0,0,0,0,0,0c0-0.402,0.32-0.728,0.716-0.728h4.013c0.797,0,1.523-0.547,1.684-1.342
	c0.22-1.092-0.6-2.056-1.637-2.056h-4.3c-0.917,0-1.909,0.557-1.909,1.456v6.312c0,1.067,0.86,1.942,1.91,1.942h6.449
	c0.395,0,0.716,0.326,0.716,0.728C119.855,72.681,119.535,73.007,119.139,73.007 M201.292,73.007h-6.449
	c-1.838,0-3.343-1.53-3.343-3.398v-6.312c0-1.823,1.702-2.912,3.343-2.912h4.192c1.576,0,2.986,1.149,3.186,2.74
	c0.244,1.923-1.232,3.572-3.078,3.572h-4.061c-0.399-0.004-0.72-0.331-0.716-0.73c0,0,0,0,0,0c0-0.402,0.321-0.728,0.717-0.728
	h4.013c0.797,0,1.522-0.547,1.684-1.342c0.22-1.092-0.6-2.056-1.637-2.056h-4.299c-0.918,0-1.91,0.557-1.91,1.456v6.312
	c0,1.067,0.86,1.942,1.91,1.942h6.448c0.396,0,0.717,0.326,0.717,0.728C202.009,72.681,201.689,73.007,201.292,73.007
	 M137.05,73.007h-5.491c-0.399-0.002-0.721-0.327-0.719-0.726c0-0.001,0-0.001,0-0.002c0-0.402,0.32-0.728,0.719-0.728h5.491
	c0.886,0,1.433-1.008,1.433-1.942v-3.885c0-0.804-0.641-1.456-1.433-1.456h-3.343c-1.84,0-3.344-1.53-3.344-3.398v-1.943
	c0-1.823,1.699-2.912,3.344-2.912h5.016c0.395,0,0.715,0.326,0.715,0.728c0,0.403-0.319,0.728-0.715,0.728h-5.016
	c-0.92,0-1.911,0.557-1.911,1.456v1.943c0,1.067,0.86,1.942,1.91,1.942h3.344c1.583,0,2.866,1.305,2.866,2.912v3.885
	C139.916,71.279,138.844,73.007,137.05,73.007 M166.664,73.007h-3.822c-1.839,0-3.343-1.53-3.343-3.398v-1.942
	c0-1.824,1.7-2.912,3.343-2.912h3.583c0.396,0,0.716,0.325,0.716,0.728c0,0.402-0.32,0.728-0.716,0.728h-3.583
	c-0.918,0-1.91,0.556-1.91,1.456v1.942c0,1.067,0.859,1.942,1.909,1.942h3.823c0.885,0,1.432-1.008,1.432-1.942v-6.312
	c0-0.804-0.64-1.456-1.432-1.456h-4.538c-0.399-0.002-0.72-0.328-0.717-0.727c0,0,0-0.001,0-0.001c0-0.402,0.321-0.728,0.717-0.728
	h4.538c1.583,0,2.865,1.303,2.865,2.912v6.312C169.529,71.279,168.457,73.007,166.664,73.007 M184.814,75.678
	c0,0.938-0.75,1.699-1.672,1.699h-4.777c-0.922,0-1.67-0.762-1.67-1.7v-2.426c0-0.94,0.748-1.7,1.67-1.7h4.777
	c0.922,0,1.672,0.76,1.672,1.7V75.678z M179.083,61.841h6.446c0.399-0.003,0.721-0.329,0.717-0.728c0,0,0,0,0,0
	c0-0.402-0.32-0.73-0.717-0.73h-6.446c-1.644,0-3.345,1.091-3.345,2.914v1.456c0,1.24,0.82,2.43,1.91,3.018v2.323h0.717
	c-1.711,0-3.104,1.416-3.104,3.157v2.427c0,1.742,1.389,3.155,3.104,3.155h4.777c1.713,0,3.104-1.413,3.104-3.155V73.25
	c0-1.744-1.391-3.157-3.104-3.157h-4.061v-1.941h3.82c1.795,0,2.867-1.728,2.867-3.4V63.54c0.003-0.399-0.318-0.725-0.717-0.728l0,0
	c-0.398,0.003-0.719,0.329-0.716,0.728l0,0v1.213c0,0.935-0.55,1.942-1.435,1.942h-3.819c-1.052,0-1.911-0.873-1.911-1.942v-1.456
	C177.172,62.397,178.163,61.841,179.083,61.841L179.083,61.841z"/>
<defs>
	<filter id="Adobe_OpacityMaskFilter_2_" filterUnits="userSpaceOnUse" x="84.986" y="55.528" width="1.433" height="1.943">
		<feColorMatrix  type="matrix" values="1 0 0 0 0  0 1 0 0 0  0 0 1 0 0  0 0 0 1 0"/>
	</filter>
</defs>
<mask maskUnits="userSpaceOnUse" x="84.986" y="55.528" width="1.433" height="1.943" id="f_1_">
	<g filter="url(#Adobe_OpacityMaskFilter_2_)">
		<path id="e_1_" fill="#FFFFFF" d="M84.986,55.529h1.505v1.942h-1.505V55.529z"/>
	</g>
</mask>
<path mask="url(#f_1_)" fill="#FEFEFE" d="M85.787,57.471H85.62c-0.353-0.002-0.636-0.29-0.634-0.642c0,0,0-0.001,0-0.001v-0.57
	c0-0.402,0.322-0.73,0.717-0.73c0.397,0,0.716,0.328,0.716,0.73v0.57C86.422,57.18,86.14,57.468,85.787,57.471
	C85.788,57.471,85.787,57.471,85.787,57.471"/>
<path fill="#FEFEFE" d="M154.245,61.112c0.003-0.398-0.317-0.725-0.716-0.728l0,0h-3.538c-0.292-0.002-0.524-0.241-0.522-0.532l0,0
	v-3.594c0.003-0.398-0.317-0.724-0.716-0.728c-0.399,0.002-0.72,0.328-0.718,0.726c0,0.001,0,0.001,0,0.002v3.594
	c0.002,0.291-0.23,0.529-0.521,0.532l0,0h-2.105c-0.398,0.003-0.72,0.33-0.717,0.728l0,0c0,0.403,0.32,0.728,0.717,0.728h2.105
	c0.289,0,0.521,0.239,0.521,0.533v7.235c0,1.87,1.505,3.399,3.344,3.399h2.15c0.398-0.003,0.719-0.329,0.716-0.728c0,0,0,0,0,0
	c0.003-0.398-0.317-0.725-0.716-0.728l0,0h-2.15c-1.05,0-1.91-0.875-1.91-1.943v-7.235c0-0.294,0.234-0.533,0.522-0.533h3.538
	C153.928,61.837,154.248,61.511,154.245,61.112L154.245,61.112"/>
<rect id="_x3C_スライス_x3E__1_" x="40" y="55" fill="none" width="163" height="25"/>
</svg>
